<?xml version="1.0" encoding="UTF-8"?>
<svg xmlns="http://www.w3.org/2000/svg" xmlns:xlink="http://www.w3.org/1999/xlink" viewBox="0 0 698.76 698.76">
  <defs>
    <style>
      .cls-1 {
        fill: url(#linear-gradient-2);
      }

      .cls-2 {
        fill: #fff;
      }

      .cls-3 {
        fill: url(#linear-gradient-17);
      }

      .cls-4 {
        fill: url(#linear-gradient-15);
      }

      .cls-5 {
        fill: url(#linear-gradient-18);
      }

      .cls-6 {
        fill: url(#linear-gradient-28);
      }

      .cls-7 {
        fill: url(#linear-gradient-14);
      }

      .cls-8 {
        fill: url(#linear-gradient-20);
      }

      .cls-9 {
        fill: url(#linear-gradient-6);
      }

      .cls-10 {
        isolation: isolate;
      }

      .cls-11 {
        fill: url(#linear-gradient-11);
      }

      .cls-12 {
        fill: url(#linear-gradient-10);
      }

      .cls-13 {
        fill: url(#linear-gradient-16);
      }

      .cls-14 {
        fill: url(#linear-gradient-21);
      }

      .cls-15 {
        fill: url(#linear-gradient-25);
      }

      .cls-16 {
        fill: url(#linear-gradient-5);
      }

      .cls-17 {
        fill: url(#linear-gradient-7);
      }

      .cls-18 {
        fill: url(#linear-gradient-24);
      }

      .cls-19 {
        fill: url(#linear-gradient-9);
      }

      .cls-20 {
        fill: url(#linear-gradient-22);
      }

      .cls-21 {
        fill: url(#linear-gradient-3);
      }

      .cls-22 {
        fill: url(#linear-gradient);
      }

      .cls-23 {
        fill: url(#linear-gradient-27);
      }

      .cls-24 {
        fill: url(#linear-gradient-23);
      }

      .cls-25 {
        fill: url(#linear-gradient-19);
      }

      .cls-26 {
        fill: url(#linear-gradient-4);
      }

      .cls-27 {
        fill: url(#linear-gradient-8);
      }

      .cls-28 {
        mix-blend-mode: multiply;
        opacity: .46;
      }

      .cls-29 {
        fill: url(#linear-gradient-12);
      }

      .cls-30 {
        fill: url(#linear-gradient-13);
      }

      .cls-31 {
        fill: url(#linear-gradient-26);
      }
    </style>
    <linearGradient id="linear-gradient" x1="438.52" y1="152.85" x2="438.52" y2="578.56" gradientUnits="userSpaceOnUse">
      <stop offset=".18" stop-color="#3ec3dd"/>
      <stop offset=".32" stop-color="#3dbad8"/>
      <stop offset=".54" stop-color="#3ba2cc"/>
      <stop offset=".81" stop-color="#377bb8"/>
      <stop offset=".99" stop-color="#355da9"/>
    </linearGradient>
    <linearGradient id="linear-gradient-2" x1="379.51" y1="152.85" x2="379.51" y2="578.56" xlink:href="#linear-gradient"/>
    <linearGradient id="linear-gradient-3" x1="292.21" y1="152.85" x2="292.21" y2="578.56" xlink:href="#linear-gradient"/>
    <linearGradient id="linear-gradient-4" x1="402.04" y1="152.85" x2="402.04" y2="578.56" xlink:href="#linear-gradient"/>
    <linearGradient id="linear-gradient-5" x1="299.67" y1="152.85" x2="299.67" y2="578.56" xlink:href="#linear-gradient"/>
    <linearGradient id="linear-gradient-6" x1="297.24" y1="152.85" x2="297.24" y2="578.56" xlink:href="#linear-gradient"/>
    <linearGradient id="linear-gradient-7" x1="366.32" y1="152.85" x2="366.32" y2="578.56" xlink:href="#linear-gradient"/>
    <linearGradient id="linear-gradient-8" x1="287.55" y1="152.85" x2="287.55" y2="578.56" xlink:href="#linear-gradient"/>
    <linearGradient id="linear-gradient-9" x1="349.38" y1="152.85" x2="349.38" y2="578.56" xlink:href="#linear-gradient"/>
    <linearGradient id="linear-gradient-10" x1="373" y1="152.9" x2="373" y2="578.52" xlink:href="#linear-gradient"/>
    <linearGradient id="linear-gradient-11" x1="359.27" y1="152.87" x2="359.27" y2="578.56" xlink:href="#linear-gradient"/>
    <linearGradient id="linear-gradient-12" x1="349.38" y1="152.85" x2="349.38" y2="578.56" xlink:href="#linear-gradient"/>
    <linearGradient id="linear-gradient-13" x1="408.84" y1="152.85" x2="408.84" y2="578.58" xlink:href="#linear-gradient"/>
    <linearGradient id="linear-gradient-14" x1="406.48" y1="152.86" x2="406.48" y2="578.57" xlink:href="#linear-gradient"/>
    <linearGradient id="linear-gradient-15" x1="408.84" y1="152.83" x2="408.84" y2="578.57" xlink:href="#linear-gradient"/>
    <linearGradient id="linear-gradient-16" x1="397.9" y1="152.85" x2="397.9" y2="578.56" xlink:href="#linear-gradient"/>
    <linearGradient id="linear-gradient-17" x1="436.53" y1="152.85" x2="436.53" y2="578.56" xlink:href="#linear-gradient"/>
    <linearGradient id="linear-gradient-18" x1="278.8" y1="152.85" x2="278.8" y2="578.56" xlink:href="#linear-gradient"/>
    <linearGradient id="linear-gradient-19" x1="358.52" y1="152.85" x2="358.52" y2="578.56" xlink:href="#linear-gradient"/>
    <linearGradient id="linear-gradient-20" x1="325.77" y1="322.7" x2="325.77" y2="347.4" xlink:href="#linear-gradient"/>
    <linearGradient id="linear-gradient-21" x1="349.38" y1="322.7" x2="349.38" y2="347.4" xlink:href="#linear-gradient"/>
    <linearGradient id="linear-gradient-22" x1="373" y1="322.7" x2="373" y2="347.4" xlink:href="#linear-gradient"/>
    <linearGradient id="linear-gradient-23" x1="380.2" y1="404.69" x2="403.15" y2="405.11" xlink:href="#linear-gradient"/>
    <linearGradient id="linear-gradient-24" x1="379.78" y1="427.51" x2="402.73" y2="427.92" xlink:href="#linear-gradient"/>
    <linearGradient id="linear-gradient-25" x1="379.36" y1="450.56" x2="402.32" y2="450.97" xlink:href="#linear-gradient"/>
    <linearGradient id="linear-gradient-26" x1="378.79" y1="481.96" x2="401.74" y2="482.38" xlink:href="#linear-gradient"/>
    <linearGradient id="linear-gradient-27" x1="378.38" y1="504.85" x2="401.33" y2="505.27" xlink:href="#linear-gradient"/>
    <linearGradient id="linear-gradient-28" x1="377.93" y1="527.78" x2="400.88" y2="528.2" xlink:href="#linear-gradient"/>
  </defs>
  <g class="cls-10">
    <g id="Layer_2" data-name="Layer 2">
      <g id="Mobile_SVG" data-name="Mobile SVG">
        <g>
          <rect class="cls-2" width="698.76" height="698.76"/>
          <g>
            <path class="cls-22" d="m425.99,292.71c-1.27,0-2.54-.48-3.52-1.44-1.98-1.94-2-5.12-.06-7.1,10.7-10.87,18.97-24.21,23.9-38.55.9-2.62,3.75-4.02,6.38-3.12,2.62.9,4.02,3.76,3.12,6.38-5.42,15.76-14.49,30.4-26.24,42.33-.98,1-2.28,1.5-3.58,1.5Z"/>
            <path class="cls-1" d="m349.39,324.79c-2.77,0-5.02-2.25-5.02-5.02s2.25-5.02,5.02-5.02c20.59,0,40.45-6.08,57.42-17.59,2.3-1.56,5.42-.96,6.97,1.34,1.56,2.3.96,5.42-1.34,6.97-18.64,12.64-40.45,19.32-63.06,19.32Z"/>
            <path class="cls-21" d="m243.9,238.1c-2.35,0-4.45-1.66-4.92-4.06-1.4-7.12-2.11-14.44-2.11-21.76,0-47.73,30.24-90.41,75.25-106.21,7.79-2.73,16.25-1.72,23.21,2.79,7.04,4.56,11.49,11.95,12.2,20.3.24,2.76-1.81,5.19-4.57,5.43-2.75.25-5.19-1.81-5.43-4.57-.45-5.23-3.23-9.86-7.65-12.72-4.34-2.81-9.6-3.44-14.44-1.75-40.99,14.38-68.53,53.26-68.53,96.73,0,6.67.64,13.34,1.92,19.83.53,2.72-1.24,5.36-3.96,5.89-.33.07-.65.1-.97.1Z"/>
            <path class="cls-26" d="m445.2,168.56c-1.83,0-3.59-1-4.48-2.74-16.15-31.73-46.92-52.52-82.29-55.62-2.76-.24-4.8-2.68-4.56-5.44.24-2.76,2.67-4.79,5.44-4.56,38.85,3.41,72.62,26.24,90.36,61.07,1.26,2.47.27,5.49-2.19,6.75-.73.37-1.51.55-2.27.55Z"/>
            <path class="cls-16" d="m293.2,201.07c-.46,0-.93-.06-1.39-.2-2.66-.77-4.2-3.55-3.43-6.21,2.68-9.3,7.55-17.98,14.07-25.11,1.87-2.04,5.05-2.19,7.09-.31,2.04,1.87,2.18,5.05.31,7.09-5.49,5.99-9.58,13.29-11.83,21.11-.63,2.2-2.64,3.63-4.82,3.63Z"/>
            <path class="cls-9" d="m303.55,253.61c-1.48,0-2.95-.65-3.94-1.9-8.66-10.91-13.4-24.05-13.71-37.98-.06-2.77,2.13-5.07,4.91-5.13,2.86-.09,5.07,2.13,5.13,4.91.26,11.73,4.25,22.78,11.54,31.97,1.72,2.17,1.36,5.33-.81,7.05-.92.73-2.02,1.09-3.12,1.09Z"/>
            <path class="cls-17" d="m349.39,300c-13.88,0-27.7-3.32-39.96-9.61-4.62-2.37-7.83-6.68-8.8-11.84-1-5.28.47-10.61,4.02-14.63,5.19-5.88,13.58-7.54,20.4-4.04,7.57,3.89,15.77,5.86,24.35,5.86,9.32,0,18.52-2.45,26.62-7.09,2.41-1.38,5.47-.54,6.85,1.86,1.38,2.41.55,5.47-1.86,6.85-9.61,5.51-20.54,8.42-31.61,8.42-10.05,0-20.06-2.41-28.94-6.97-2.69-1.38-6.17-.64-8.29,1.75-1.48,1.68-2.1,3.91-1.68,6.12.23,1.23,1,3.48,3.52,4.77,10.85,5.57,23.09,8.51,35.38,8.51,32.78,0,62.16-20.7,73.15-51.53.65-2.01,2.54-3.47,4.77-3.47,2.77,0,5.02,2.24,5.02,5.01,0,.57-.1,1.16-.29,1.7-12.38,34.89-45.59,58.33-82.66,58.33Z"/>
            <path class="cls-27" d="m330.79,317.27v89.9c0,2.79-2.26,5.02-5.02,5.02s-5.02-2.23-5.02-5.02v-86.06c-34.58-9.09-62.89-34.16-76.07-67.61-1.03-2.56.25-5.5,2.81-6.5,2.59-1.03,5.5.25,6.53,2.84,12.35,31.35,39.28,54.61,72.03,62.24.15.05.3.08.48.13l.85.3c2.03.68,3.41,2.61,3.41,4.77Z"/>
            <path class="cls-19" d="m349.38,598.58c-15.79,0-28.64-12.85-28.64-28.64v-141.91c0-2.77,2.25-5.02,5.02-5.02s5.02,2.25,5.02,5.02v141.91c0,10.26,8.34,18.6,18.6,18.6s18.6-8.34,18.6-18.6v-182.8c0-2.77,2.25-5.02,5.02-5.02s5.02,2.25,5.02,5.02v182.8c0,15.79-12.85,28.64-28.64,28.64Z"/>
            <path class="cls-12" d="m378.02,319.78v47.89c0,2.76-2.23,5.02-5.02,5.02s-5.02-2.26-5.02-5.02v-47.89c0-2.79,2.26-5.02,5.02-5.02s5.02,2.23,5.02,5.02Z"/>
            <path class="cls-11" d="m374.18,505.1c0,2.76-2.26,5.02-5.02,5.02-13.68,0-24.8-11.12-24.8-24.8v-165.54c0-2.79,2.26-5.02,5.02-5.02s5.02,2.23,5.02,5.02v165.54c0,8.13,6.63,14.76,14.76,14.76,2.76,0,5.02,2.23,5.02,5.02Z"/>
            <path class="cls-29" d="m349.38,571.68c-2.77,0-5.02-2.25-5.02-5.02v-43.2c0-2.77,2.25-5.02,5.02-5.02s5.02,2.25,5.02,5.02v43.2c0,2.77-2.25,5.02-5.02,5.02Z"/>
            <path class="cls-30" d="m421.74,399.89h-48.74c-2.76,0-5.02,2.23-5.02,5.02v45.88c0,2.76,2.26,5.02,5.02,5.02h48.74c15.43,0,27.96-12.55,27.96-27.96s-12.52-27.96-27.96-27.96Zm0,45.88h-43.72v-35.84h43.72c9.89,0,17.92,8.03,17.92,17.92s-8.03,17.92-17.92,17.92Z"/>
            <path class="cls-7" d="m426.71,427.85c0,2.76-2.26,5.02-5.02,5.02h-30.42c-2.79,0-5.02-2.26-5.02-5.02s2.23-5.02,5.02-5.02h30.42c2.76,0,5.02,2.23,5.02,5.02Z"/>
            <path class="cls-4" d="m449.7,505.1c0,15.41-12.52,27.96-27.96,27.96h-48.74c-2.76,0-5.02-2.26-5.02-5.02v-45.88c0-2.76,2.26-5.02,5.02-5.02h28.69c2.26,0,4.17,1.48,4.79,3.54.15.45.23.95.23,1.48s-.07,1.03-.23,1.48c-.63,2.06-2.53,3.54-4.79,3.54h-23.67v35.84h43.72c9.89,0,17.92-8.03,17.92-17.92s-8.03-17.92-17.92-17.92c-2.76,0-5.02-2.26-5.02-5.02s2.26-5.02,5.02-5.02c15.43,0,27.96,12.55,27.96,27.96Z"/>
            <path class="cls-13" d="m427.81,505.1c0,2.76-2.23,5.02-5.02,5.02h-49.79c-2.76,0-5.02-2.26-5.02-5.02s2.26-5.02,5.02-5.02h49.79c2.79,0,5.02,2.23,5.02,5.02Z"/>
            <path class="cls-3" d="m444.38,226.45c-1.76,0-3.54-.27-5.26-.81-6.97-2.2-11.87-8.6-12.19-15.93-.19-4.27-.69-8.73-1.48-13.26-1.79-10.23-6.27-20.31-13.31-29.95-1.63-2.24-1.14-5.38,1.09-7.01,2.24-1.64,5.38-1.14,7.01,1.09,7.95,10.89,13.03,22.38,15.09,34.14.87,4.95,1.41,9.84,1.62,14.54.14,3.13,2.22,5.86,5.19,6.8,2.34.74,4.8.31,6.75-1.18,1.96-1.5,3.04-3.78,2.94-6.25-.05-1.28-.13-2.59-.25-3.9-.76-8.29-2.09-15.48-4.06-22-.8-2.65.7-5.45,3.35-6.26,2.66-.8,5.46.7,6.26,3.35,2.16,7.17,3.62,15.01,4.44,23.98.14,1.49.23,2.97.29,4.43.22,5.7-2.35,11.17-6.88,14.63-3.08,2.35-6.82,3.58-10.61,3.58Z"/>
            <path class="cls-5" d="m287.82,272.5c-1.37,0-2.74-.56-3.73-1.66-14.45-16.08-22.41-36.87-22.41-58.55,0-23.45,9.12-45.48,25.69-62.01,1.96-1.96,5.14-1.95,7.1,0,1.96,1.96,1.96,5.14,0,7.1-14.67,14.64-22.74,34.14-22.74,54.91,0,19.2,7.05,37.61,19.84,51.84,1.85,2.06,1.68,5.24-.38,7.09-.96.86-2.16,1.29-3.35,1.29Z"/>
            <path class="cls-25" d="m412.61,206.33c-.76-8.36-3.22-16.45-7.32-24.05,0,0,0,0,0,0-10.01-18.55-28.31-30.93-48.94-33.12-11.17-1.19-22.39.53-32.47,4.98-2.77,1.22-6.09.33-8.1-2.17-1.4-1.74-1.9-3.99-1.36-6.16.53-2.16,2.01-3.91,4.05-4.8,9.77-4.25,20.18-6.4,30.93-6.4,18.88,0,37.07,6.85,51.22,19.28,2.08,1.83,5.25,1.62,7.08-.46,1.83-2.08,1.62-5.25-.46-7.08-15.98-14.05-36.53-21.78-57.85-21.78-12.13,0-23.89,2.44-34.93,7.24-4.93,2.14-8.5,6.37-9.79,11.6-1.29,5.24-.09,10.65,3.29,14.85,4.85,6.03,13.06,8.11,19.97,5.06,8.48-3.74,17.94-5.19,27.36-4.18,17.34,1.84,32.73,12.28,41.17,27.91,0,0,0,0,0,0,3.45,6.39,5.52,13.18,6.16,20.19,1.26,13.87-2.76,27.45-11.32,38.24-1.72,2.17-1.36,5.33.81,7.05.92.73,2.02,1.09,3.12,1.09,1.48,0,2.94-.65,3.93-1.9,10.18-12.82,14.96-28.94,13.46-45.39Z"/>
            <g class="cls-28">
              <path class="cls-8" d="m330.79,323.6v22.21c-3.26-.73-6.63-1.61-10.04-2.74v-21.96s3.66,1.33,10.04,2.48Z"/>
              <path class="cls-14" d="m354.4,325.1v23.16c-3.16.03-6.53-.1-10.04-.4v-22.76c3.11.15,6.48.18,10.04,0Z"/>
              <path class="cls-20" d="m378.02,321.49v23.89c-2.84.7-6.2,1.38-10.04,1.91v-23.62c3.24-.53,6.6-1.25,10.04-2.18Z"/>
            </g>
            <g class="cls-28">
              <rect class="cls-24" x="378.02" y="399.89" width="28.46" height="10.04"/>
              <path class="cls-18" d="m406.48,422.83v10.04h-15.21c-2.79,0-5.02-2.26-5.02-5.02s2.23-5.02,5.02-5.02h15.21Z"/>
              <rect class="cls-15" x="378.02" y="445.77" width="28.46" height="10.04"/>
              <path class="cls-31" d="m406.48,480.68v2.96c-.63,2.06-2.53,3.54-4.79,3.54h-23.67v-10.04h23.67c2.26,0,4.17,1.48,4.79,3.54Z"/>
              <rect class="cls-23" x="378.02" y="500.08" width="28.46" height="10.04"/>
              <rect class="cls-6" x="378.02" y="523.02" width="28.46" height="10.04"/>
            </g>
          </g>
        </g>
      </g>
    </g>
  </g>
</svg>